<svg width="1920" height="1922" viewBox="0 0 1920 1922" fill="#4ADE80" xmlns="http://www.w3.org/2000/svg"  opacity="0.05" >
<path opacity="0.5" d="M36.8515 1417.57H101.124L203.461 1594.83H139.193L36.8515 1417.57ZM1.75006 1351.64L33.8861 1295.98H238.563L206.431 1351.64H1.75006ZM36.8515 1052.78H101.124L203.461 1230.04H139.193L36.8515 1052.78ZM1.75006 986.845L33.8861 931.187H238.563L206.431 986.845H1.75006ZM36.8515 687.989H101.124L203.461 865.248H139.193L36.8515 687.989ZM1.75006 622.053L33.8861 566.393H238.563L206.431 622.053H1.75006ZM36.8515 323.197H101.124L203.461 500.457H139.193L36.8515 323.197ZM1.75006 257.259L33.8861 201.598H238.563L206.431 257.259H1.75006ZM554.485 19.2014L522.349 74.8645H317.671L349.808 19.2014H554.485ZM629.141 21.7738L661.274 77.4369L558.935 254.691L526.801 199.031L629.141 21.7738ZM1186.32 19.2014L1154.19 74.8645H949.512L981.646 19.2014H1186.32ZM1260.97 21.7738L1293.12 77.4369L1190.77 254.691L1158.64 199.031L1260.97 21.7738ZM1578.39 80.0018H1783.07L1750.92 135.663H1546.26L1578.39 80.0018ZM1818.17 19.2014L1786.04 74.8645H1581.36L1613.49 19.2014H1818.17ZM1889.85 381.428L1787.52 558.685L1755.37 503.024L1857.72 325.765L1889.85 381.428ZM1889.85 746.22L1787.52 923.476L1755.37 867.818L1857.72 690.562L1889.85 746.22ZM1889.85 1111.01L1787.52 1288.27L1755.37 1232.61L1857.72 1055.35L1889.85 1111.01ZM1889.85 1475.81L1787.52 1653.06L1755.37 1597.4L1857.72 1420.14L1889.85 1475.81ZM1581.36 1898.83L1613.49 1843.17H1818.17L1786.04 1898.83H1581.36ZM1506.71 1896.26L1474.56 1840.6L1576.91 1663.34L1609.04 1719L1506.71 1896.26ZM949.512 1898.83L981.646 1843.17H1186.32L1154.19 1898.83H949.512ZM874.854 1896.26L842.722 1840.6L945.06 1663.34L977.196 1719L874.854 1896.26ZM317.671 1898.83L349.808 1843.17H554.485L522.349 1898.83H317.671ZM243.016 1896.26L210.882 1840.6L313.221 1663.34L345.353 1719L243.016 1896.26ZM1.75006 1716.43L33.8861 1660.77H238.563L206.431 1716.43H1.75006ZM171.328 1417.57L273.665 1594.83H209.397L107.057 1417.57H171.328ZM278.12 1237.75L310.251 1293.41L207.914 1470.66L175.78 1415L251.585 1283.7L278.12 1237.75ZM273.665 1235.18L247.135 1281.14L241.533 1290.84H36.8515L68.9875 1235.18H273.665ZM171.328 1052.78L273.665 1230.04H209.397L107.057 1052.78H171.328ZM278.12 872.956L310.251 928.616L207.914 1105.87L175.78 1050.21L251.188 919.6L278.12 872.956ZM273.665 870.386L246.738 917.03L241.533 926.046H36.8515L68.9875 870.386H273.665ZM171.328 687.989L273.665 865.248H209.397L107.057 687.989H171.328ZM278.12 508.165L310.251 563.823L207.914 741.079L175.78 685.424L251.188 554.805L278.12 508.165ZM273.665 505.594L246.738 552.238L241.533 561.253H36.8515L68.9875 505.594H273.665ZM171.328 323.197L273.665 500.457H209.397L107.057 323.197H171.328ZM278.12 143.37L310.251 199.031L207.914 376.288L175.78 320.627L251.99 188.624L278.12 143.37ZM273.665 140.8L247.539 186.056L241.533 196.461H36.8515L68.9875 140.8H273.665ZM487.247 135.663H282.57L314.704 80.0018H519.381L487.247 135.663ZM696.376 138.232L594.036 315.487L561.905 259.829L664.242 82.5743L696.376 138.232ZM905.508 140.8L879.38 186.056L873.371 196.461H668.695L700.828 140.8H905.508ZM1119.09 135.663H914.411L946.545 80.0018H1151.22L1119.09 135.663ZM1328.22 138.232L1225.87 315.487L1193.74 259.829L1296.07 82.5743L1328.22 138.232ZM1537.36 140.8L1505.21 196.461H1300.52L1332.67 140.8H1537.36ZM1821.15 1838.03H1616.46L1648.59 1782.37H1853.27L1821.15 1838.03ZM1439.45 1779.8L1541.81 1602.54L1573.94 1658.2L1471.61 1835.46L1439.45 1779.8ZM1262.47 1721.57H1467.16L1435 1777.23H1230.32L1262.47 1721.57ZM807.621 1779.8L883.029 1649.18L909.958 1602.54L942.092 1658.2L839.753 1835.46L807.621 1779.8ZM598.489 1777.23L630.626 1721.57H835.302L803.168 1777.23H598.489ZM175.78 1779.8L251.188 1649.18L278.12 1602.54L310.251 1658.2L207.914 1835.46L175.78 1779.8ZM273.665 1599.97L246.738 1646.61L241.533 1655.63H36.8515L68.9875 1599.97H273.665ZM345.353 1354.2L243.016 1531.46L210.882 1475.8L313.221 1298.55L345.353 1354.2ZM345.353 989.412L243.016 1166.67L210.882 1111.01L313.221 933.752L345.353 989.412ZM345.353 624.619L243.016 801.877L210.882 746.217L313.221 568.961L345.353 624.619ZM345.353 259.826L243.016 437.084L210.882 381.423L313.221 204.166L345.353 259.826ZM525.318 318.057L422.979 140.798H487.247L589.587 318.057H525.318ZM835.302 262.397L803.168 318.057H598.489L630.626 262.397H835.302ZM838.27 257.256H633.593L665.727 201.596H870.406L838.27 257.256ZM909.958 143.368L942.092 199.028L839.753 376.285L807.621 320.625L883.831 188.622L909.958 143.368ZM978.679 140.798L1081.01 318.057H1016.75L982.401 258.563C982.401 258.561 982.401 258.561 982.398 258.561L947.299 197.763C947.297 197.763 947.297 197.762 947.297 197.76L914.411 140.798H978.679ZM1157.17 318.057L1054.82 140.798H1119.09L1221.42 318.057H1157.17ZM1467.16 262.397L1435 318.057H1230.32L1262.47 262.397H1467.16ZM1470.11 257.256H1265.42L1297.57 201.596H1502.26L1470.11 257.256ZM1610.51 140.798L1712.87 318.057H1648.59L1614.25 258.563V258.558L1579.15 197.763V197.76L1546.26 140.798H1610.51ZM1616.46 378.856L1648.59 323.195H1853.27L1821.15 378.856H1616.46ZM1786.04 439.654H1581.36L1613.49 383.996H1818.17L1786.04 439.654ZM1789 682.849L1686.66 505.592H1750.92L1853.27 682.849H1789ZM1616.46 743.647L1648.59 687.987H1853.27L1821.15 743.647H1616.46ZM1786.04 804.448H1581.36L1613.49 748.787H1818.17L1786.04 804.448ZM1789 1047.64L1686.66 870.384H1750.92L1853.27 1047.64H1789ZM1616.46 1108.44L1648.59 1052.78H1853.27L1821.15 1108.44H1616.46ZM1786.04 1169.24H1581.36L1613.49 1113.58H1818.17L1786.04 1169.24ZM1789 1412.43L1686.66 1235.18H1750.92L1853.27 1412.43H1789ZM1616.46 1473.23L1648.59 1417.57H1853.27L1821.15 1473.23H1616.46ZM1786.04 1534.03H1581.36L1613.49 1478.37H1818.17L1786.04 1534.03ZM1789 1777.23L1686.66 1599.97H1750.92L1853.27 1777.23H1789ZM1680.72 1599.97L1783.07 1777.23H1718.79L1616.46 1599.97H1680.72ZM1297.57 1660.77H1502.26L1470.11 1716.43H1265.42L1297.57 1660.77ZM1193.74 1719L1296.07 1541.74L1328.22 1597.4L1225.87 1774.66L1193.74 1719ZM1157.17 1777.23L1054.82 1599.97H1119.09L1221.42 1777.23H1157.17ZM1048.88 1599.97L1151.22 1777.23H1086.96L984.616 1599.97H1048.88ZM873.371 1655.63H668.695L700.828 1599.97H905.508L878.578 1646.61L873.371 1655.63ZM665.727 1660.77H870.406L838.27 1716.43H633.593L665.727 1660.77ZM561.905 1719L664.242 1541.74L696.376 1597.4L594.036 1774.66L561.905 1719ZM525.318 1777.23L422.979 1599.97H487.247L589.587 1777.23H525.318ZM417.041 1599.97L519.381 1777.23H455.115L352.773 1599.97H417.041ZM417.041 1235.18L519.381 1412.43H455.115L352.773 1235.18H417.041ZM417.041 870.384L519.381 1047.64H455.115L352.773 870.384H417.041ZM417.041 505.592L519.381 682.849H455.115L352.773 505.592H417.041ZM557.452 378.856H352.773L384.909 323.195H589.587L562.659 369.838L557.452 378.856ZM1012.3 320.625L909.958 497.884L883.029 451.24L877.824 442.224L980.164 264.964L1012.3 320.625ZM1189.29 378.856H984.616L1016.75 323.195H1221.42L1194.5 369.838L1189.29 378.856ZM1546.26 500.454L1578.39 444.791H1783.07L1750.92 500.454H1546.26ZM1718.79 682.849L1616.46 505.592H1680.72L1783.07 682.849H1718.79ZM1648.59 682.849L1614.25 623.357V623.35L1579.15 562.556V562.554L1546.26 505.592H1610.51L1712.87 682.849H1648.59ZM1546.26 865.246L1578.39 809.586H1783.07L1750.92 865.246H1546.26ZM1718.79 1047.64L1616.46 870.384H1680.72L1783.07 1047.64H1718.79ZM1648.59 1047.64L1614.25 988.151V988.144L1579.15 927.348V927.346L1546.26 870.384H1610.51L1712.87 1047.64H1648.59ZM1546.26 1230.04L1578.39 1174.38H1783.07L1750.92 1230.04H1546.26ZM1718.79 1412.43L1616.46 1235.18H1680.72L1783.07 1412.43H1718.79ZM1648.59 1412.43L1614.25 1352.94V1352.94L1579.15 1292.14V1292.14L1546.26 1235.18H1610.51L1712.87 1412.43H1648.59ZM1546.26 1594.83L1578.39 1539.17H1783.07L1750.92 1594.83H1546.26ZM1298.31 1535.34L1263.21 1474.54V1474.53L1230.32 1417.57H1294.6L1396.95 1594.83H1332.67L1298.31 1535.34ZM1158.64 1658.2L1260.97 1480.94L1293.12 1536.6L1190.77 1713.86L1158.64 1658.2ZM946.545 1539.17H1151.22L1119.09 1594.83H914.411L946.545 1539.17ZM841.238 1594.83L738.898 1417.57H803.168L905.508 1594.83H841.238ZM666.479 1535.34L631.377 1474.54V1474.53L598.489 1417.57H662.757L765.099 1594.83H700.828L666.479 1535.34ZM526.801 1658.2L629.141 1480.94L661.274 1536.6L558.935 1713.86L526.801 1658.2ZM519.381 1539.17L487.247 1594.83H282.57L314.704 1539.17H519.381ZM554.485 1478.37L522.349 1534.03H317.671L349.808 1478.37H554.485ZM589.587 1417.57L563.056 1463.53L557.452 1473.23H352.773L384.909 1417.57H589.587ZM487.247 1235.18L589.587 1412.43H525.318L422.979 1235.18H487.247ZM519.381 1174.38L487.247 1230.04H282.57L314.704 1174.38H519.381ZM554.485 1113.58L522.349 1169.24H317.671L349.808 1113.58H554.485ZM589.587 1052.78L563.056 1098.74L557.452 1108.44H352.773L384.909 1052.78H589.587ZM487.247 870.384L589.587 1047.64H525.318L422.979 870.384H487.247ZM519.381 809.586L487.247 865.246H282.57L314.704 809.586H519.381ZM554.485 748.787L522.349 804.448H317.671L349.808 748.787H554.485ZM589.587 687.987L563.461 733.243L557.452 743.647H352.773L384.909 687.987H589.587ZM487.247 505.592L589.587 682.849H525.318L422.979 505.592H487.247ZM519.381 444.791L487.247 500.454H282.57L314.704 444.791H519.381ZM522.349 439.654H317.671L349.808 383.996H554.485L522.349 439.654ZM626.173 381.423L523.834 558.682L491.699 503.022L594.036 325.763L626.173 381.423ZM662.757 323.195L765.099 500.454H700.828L666.479 440.96V440.955L631.377 380.16V380.157L598.489 323.195H662.757ZM905.508 500.454H841.238L738.898 323.195H803.168L905.508 500.454ZM1151.22 444.791L1119.09 500.454H914.411L946.545 444.791H1151.22ZM1154.19 439.654H949.512L981.646 383.996H1186.32L1154.19 439.654ZM1258.02 381.423L1155.67 558.682L1123.54 503.022L1225.87 325.763L1258.02 381.423ZM1294.6 323.195L1396.95 500.454H1332.67L1298.31 440.96V440.955L1263.21 380.16V380.157L1230.32 323.195H1294.6ZM1537.36 500.454H1473.08L1370.75 323.195H1435L1537.36 500.454ZM1473.08 1594.83L1370.75 1417.57H1435L1537.36 1594.83H1473.08ZM1364.8 1417.57L1467.16 1594.83H1402.88L1300.52 1417.57H1364.8ZM981.646 1478.37H1186.32L1154.19 1534.03H949.512L981.646 1478.37ZM883.429 1546.31L877.824 1536.6L980.164 1359.35L1012.3 1415L909.958 1592.26L883.429 1546.31ZM696.376 503.026L594.036 680.282L561.905 624.622L664.242 447.365L696.376 503.026ZM1328.22 503.026L1225.87 680.282L1193.74 624.622L1296.07 447.365L1328.22 503.026ZM1262.47 1356.78H1467.15L1435 1412.44H1230.32L1262.47 1356.78ZM982.398 1352.94V1352.94L947.297 1292.15C947.295 1292.14 947.295 1292.14 947.295 1292.14L914.409 1235.18H978.677L1081.01 1412.44H1016.75L982.398 1352.94ZM842.72 1475.81L945.057 1298.55L977.194 1354.21L874.852 1531.46L842.72 1475.81ZM598.487 1412.44L630.623 1356.78H835.3L803.166 1412.44H598.487ZM561.903 1354.21L664.24 1176.95L696.374 1232.61L594.034 1409.87L561.903 1354.21ZM626.171 1111.01L523.831 1288.27L491.697 1232.61L594.034 1055.35L626.171 1111.01ZM561.903 989.415L664.24 812.158L696.374 867.818L594.034 1045.07L561.903 989.415ZM626.171 746.22L523.831 923.476L491.697 867.818L594.034 690.562L626.171 746.22ZM835.3 627.191L803.166 682.851H598.487L630.623 627.191H835.3ZM870.404 566.393L838.268 622.053H633.591L665.725 566.393H870.404ZM905.506 505.594L878.576 552.238L873.369 561.253H668.692L700.826 505.594H905.506ZM978.677 505.594L1081.01 682.851H1016.75L982.398 623.359C982.398 623.357 982.398 623.357 982.396 623.355L947.297 562.559C947.295 562.559 947.295 562.556 947.295 562.556L914.409 505.594H978.677ZM1119.09 505.594L1221.42 682.851H1157.16L1054.82 505.594H1119.09ZM1300.52 926.046L1332.67 870.386H1537.36L1505.21 926.046H1300.52ZM1265.42 986.845L1297.57 931.187H1502.25L1470.1 986.845H1265.42ZM1230.32 1047.65L1262.47 991.985H1467.15L1435 1047.65H1230.32ZM1300.52 1290.84L1332.67 1235.18H1537.36L1505.21 1290.84H1300.52ZM1297.57 1295.98H1502.25L1470.1 1351.64H1265.42L1297.57 1295.98ZM1193.74 1354.21L1296.07 1176.95L1328.22 1232.61L1225.87 1409.87L1193.74 1354.21ZM1157.16 1412.44L1054.82 1235.18H1119.09L1221.42 1412.44H1157.16ZM1048.88 1235.18L1151.21 1412.44H1086.96L984.614 1235.18H1048.88ZM905.506 1235.18L878.974 1281.14L873.369 1290.84H668.692L700.826 1235.18H905.506ZM835.3 991.985L803.166 1047.65H598.487L630.623 991.985H835.3ZM870.404 931.187L838.268 986.845H633.591L665.725 931.187H870.404ZM905.506 870.386L878.576 917.03L873.369 926.046H668.692L700.826 870.386H905.506ZM1012.3 685.424L909.956 862.678L883.828 817.425L877.822 807.018L980.162 629.761L1012.3 685.424ZM1294.6 687.989L1396.95 865.248H1332.67L1298.31 805.754V805.751L1263.21 744.956V744.953L1230.32 687.989H1294.6ZM1402.88 865.248L1300.52 687.989H1364.8L1467.15 865.248H1402.88ZM1158.64 1293.41L1260.97 1116.15L1293.12 1171.81L1190.77 1349.07L1158.64 1293.41ZM946.542 1174.38H1151.21L1119.09 1230.04H914.409L946.542 1174.38ZM732.961 1052.78L835.3 1230.04H771.03L668.692 1052.78H732.961ZM909.956 872.956L942.09 928.616L839.75 1105.87L807.619 1050.21L883.026 919.6L909.956 872.956ZM732.961 687.989L835.3 865.248H771.03L668.692 687.989H732.961ZM803.166 687.989L905.506 865.248H841.235L738.896 687.989H803.166ZM1151.21 809.588L1119.09 865.248H914.409L946.542 809.588H1151.21ZM1186.32 748.79L1154.19 804.45H949.51L981.644 748.79H1186.32ZM1221.42 687.989L1195.29 733.245L1189.29 743.65H984.614L1016.75 687.989H1221.42ZM981.644 1113.58H1186.32L1154.19 1169.24H949.51L981.644 1113.58ZM883.426 1181.52L877.822 1171.81L980.162 994.555L1012.3 1050.21L909.956 1227.47L883.426 1181.52ZM977.194 989.415L874.852 1166.67L842.72 1111.01L945.057 933.754L977.194 989.415ZM1157.16 1047.65L1054.82 870.386H1119.09L1221.42 1047.65H1157.16ZM1048.88 870.386L1151.21 1047.65H1086.96L984.614 870.386H1048.88ZM1189.29 1108.44H984.614L1016.75 1052.78H1221.42L1194.88 1098.74L1189.29 1108.44ZM947.295 927.348L914.409 870.386H978.677L1081.01 1047.65H1016.75L982.398 988.151V988.148L947.297 927.35C947.295 927.35 947.295 927.35 947.295 927.348ZM841.235 1230.04L738.896 1052.78H803.166L905.506 1230.04H841.235ZM1258.02 1111.01L1155.66 1288.27L1123.54 1232.61L1225.87 1055.35L1258.02 1111.01ZM1293.12 807.018L1190.77 984.277L1158.64 928.616L1260.97 751.36L1293.12 807.018ZM1258.02 746.22L1155.66 923.476L1123.54 867.818L1225.87 690.562L1258.02 746.22ZM1294.6 1052.78L1396.95 1230.04H1332.67L1298.31 1170.55V1170.55L1263.21 1109.75V1109.74L1230.32 1052.78H1294.6ZM1402.88 1230.04L1300.52 1052.78H1364.8L1467.15 1230.04H1402.88ZM1225.87 1045.07L1193.74 989.415L1296.07 812.158L1328.22 867.818L1225.87 1045.07ZM1048.88 505.594L1151.21 682.851H1086.96L984.614 505.594H1048.88ZM977.194 624.621L874.852 801.88L842.72 746.22L945.057 568.963L977.194 624.621ZM909.956 508.165L942.09 563.823L839.75 741.079L807.619 685.424L883.026 554.805L909.956 508.165ZM666.477 805.754V805.751L631.375 744.956C631.375 744.953 631.375 744.953 631.373 744.953L598.487 687.989H662.755L765.097 865.248H700.826L666.477 805.754ZM661.272 807.018L558.933 984.277L526.798 928.616L629.138 751.36L661.272 807.018ZM666.477 1170.55V1170.55L631.375 1109.75C631.375 1109.75 631.375 1109.75 631.373 1109.74L598.487 1052.78H662.755L765.097 1230.04H700.826L666.477 1170.55ZM661.272 1171.81L558.933 1349.07L526.798 1293.41L629.138 1116.15L661.272 1171.81ZM665.725 1295.98H870.404L838.268 1351.64H633.591L665.725 1295.98ZM942.09 1293.41L839.75 1470.66L807.619 1415L883.426 1283.7L909.956 1237.75L942.09 1293.41ZM1435 1052.78L1537.36 1230.04H1473.08L1370.75 1052.78H1435ZM1435 687.989L1537.36 865.248H1473.08L1370.75 687.989H1435ZM1467.15 627.191L1435 682.851H1230.32L1262.47 627.191H1467.15ZM1502.25 566.393L1470.1 622.053H1265.42L1297.57 566.393H1502.25ZM1332.67 505.594H1537.36L1505.21 561.253H1300.52L1332.67 505.594ZM1189.29 1473.24H984.614L1016.75 1417.58H1221.42L1194.88 1463.53L1189.29 1473.24ZM1364.8 323.2L1467.15 500.459H1402.88L1300.52 323.2H1364.8ZM1293.12 442.229L1190.77 619.486L1158.64 563.825L1260.97 386.569L1293.12 442.229ZM732.961 323.2L835.3 500.459H771.03L668.692 323.2H732.961ZM661.272 442.229L558.933 619.486L526.798 563.825L629.138 386.569L661.272 442.229ZM626.171 1475.81L523.831 1653.07L491.697 1597.41L594.034 1420.15L626.171 1475.81ZM771.03 1594.84L668.692 1417.58H732.961L835.3 1594.84H771.03ZM1258.02 1475.81L1155.66 1653.07L1123.54 1597.41L1225.87 1420.15L1258.02 1475.81ZM1609.03 1354.21L1506.7 1531.47L1474.55 1475.81L1576.91 1298.55L1609.03 1354.21ZM1573.93 1293.42L1471.6 1470.67L1439.45 1415.01L1541.81 1237.76L1573.93 1293.42ZM1609.03 989.42L1506.7 1166.68L1474.55 1111.02L1576.91 933.76L1609.03 989.42ZM1573.93 928.622L1471.6 1105.88L1439.45 1050.22L1541.81 872.961L1573.93 928.622ZM1609.03 624.626L1506.7 801.885L1474.55 746.225L1576.91 568.968L1609.03 624.626ZM1573.93 563.828L1471.6 741.087L1439.45 685.429L1541.81 508.17L1573.93 563.828ZM1332.67 1599.98H1537.36L1505.21 1655.64H1300.52L1332.67 1599.98ZM1541.81 1592.27L1509.66 1536.61L1612.01 1359.35L1644.14 1415.01L1541.81 1592.27ZM1541.81 1227.48L1509.66 1171.82L1612.01 994.56L1644.14 1050.22L1541.81 1227.48ZM1541.81 862.685L1509.66 807.025L1612.01 629.766L1644.14 685.431L1541.81 862.685ZM1644.14 320.635L1541.81 497.894L1509.66 442.234L1612.01 264.974L1644.14 320.635ZM1680.71 140.808L1783.07 318.067H1718.79L1616.46 140.808H1680.71ZM1609.03 259.836L1506.7 437.093L1474.55 381.433L1576.91 204.176L1609.03 259.836ZM1573.93 199.038L1471.6 376.295L1439.45 320.635L1541.81 143.378L1573.93 199.038ZM1048.88 140.808L1151.21 318.067H1086.96L984.614 140.808H1048.88ZM977.194 259.836L874.852 437.093L842.72 381.433L945.057 204.176L977.194 259.836ZM417.039 140.808L519.379 318.067H455.113L352.771 140.808H417.039ZM251.186 451.25L245.981 442.234L348.321 264.974L380.454 320.635L278.117 497.894L251.186 451.25ZM251.987 817.432L245.981 807.025L348.321 629.769L380.454 685.431L278.117 862.685L251.987 817.432ZM251.583 1181.52L245.981 1171.82L348.321 994.562L380.454 1050.22L278.117 1227.48L251.583 1181.52ZM251.583 1546.32L245.981 1536.61L348.321 1359.35L380.454 1415.01L278.117 1592.27L251.583 1546.32ZM1750.92 140.808L1853.27 318.068H1788.99L1686.66 140.808H1750.92ZM315.454 197.771L282.568 140.808H346.836L449.176 318.068H384.908L350.556 258.573V258.571L315.454 197.773V197.771ZM315.454 562.564L282.568 505.603H346.836L449.176 682.859H384.908L350.558 623.367C350.556 623.365 350.556 623.365 350.556 623.363L315.454 562.567V562.564ZM315.454 927.356L282.568 870.394H346.836L449.176 1047.65H384.908L350.556 988.159V988.156L315.454 927.358V927.356ZM315.454 1292.15L282.568 1235.19H346.836L449.176 1412.44H384.908L350.556 1352.95V1352.95L315.454 1292.15V1292.15ZM350.556 1717.74V1717.74L315.454 1656.94V1656.94L282.568 1599.98H346.836L449.176 1777.24H384.908L350.556 1717.74ZM557.451 1838.04H352.771L384.908 1782.38H589.585L563.055 1828.33L557.451 1838.04ZM982.399 1717.74C982.399 1717.74 982.399 1717.74 982.397 1717.74L947.297 1656.94C947.295 1656.94 947.295 1656.94 947.295 1656.94L914.409 1599.98H978.677L1081.01 1777.24H1016.75L982.399 1717.74ZM1189.29 1838.04H984.614L1016.75 1782.38H1221.42L1194.88 1828.33L1189.29 1838.04ZM1614.25 1717.74V1717.74L1579.15 1656.94L1546.26 1599.98H1610.51L1712.86 1777.24H1648.59L1614.25 1717.74ZM68.9864 1594.84L34.6372 1535.35H34.6349L-0.464266 1474.55L-0.467122 1474.54L-1 1473.62L-1 1483.9L29.4352 1536.61L-1 1589.32L-1 1599.6L32.4023 1541.75L64.5366 1597.41L-1 1710.92L-1 1721.58H203.46L171.326 1777.24H-1L-1 1782.38H30.9173L111.53 1922H117.462L36.8503 1782.38H101.123L181.733 1922H187.666L107.056 1782.38H171.326L251.939 1922H257.871L251.584 1911.11L245.982 1901.4L348.322 1724.15L380.456 1779.81L298.361 1922H304.299L314.703 1903.98H519.38L508.975 1922H514.908L594.035 1784.95L626.172 1840.61L579.179 1922H585.113L629.14 1845.75L661.273 1901.41L649.384 1922H655.317L664.241 1906.55L673.163 1922H679.1L666.478 1900.14L631.376 1839.34C631.376 1839.34 631.376 1839.34 631.374 1839.34L598.488 1782.38H662.756L743.368 1922H749.303L668.694 1782.38H732.962L813.571 1922H819.509L738.897 1782.38H803.167L883.777 1922H889.715L883.427 1911.11L877.823 1901.4L980.163 1724.15L1012.3 1779.81L930.202 1922H936.137L946.543 1903.98H1151.22L1140.82 1922H1146.74L1225.87 1784.95L1258.02 1840.61L1211.02 1922H1216.95L1260.97 1845.75L1293.12 1901.41L1281.22 1922H1287.17L1296.07 1906.55L1305 1922H1310.95L1298.31 1900.14L1263.21 1839.34V1839.34L1230.32 1782.38H1294.6L1375.2 1922H1381.15L1300.52 1782.38H1364.8L1445.43 1922H1451.35L1370.75 1782.38H1435L1515.63 1922H1521.56L1509.66 1901.4L1612.01 1724.15L1644.14 1779.81L1562.04 1922H1567.98L1578.38 1903.98H1783.07L1772.67 1922H1778.59L1857.72 1784.95L1889.85 1840.61L1842.87 1922H1848.8L1892.82 1845.75L1921 1894.56V1884.28L1895.06 1839.35V1839.33L1862.17 1782.38H1921V1777.24H1862.17L1894.3 1721.58H1921V1716.44H1897.27L1921 1675.33V1665.06L1857.72 1774.67L1825.59 1719.01L1921 1553.74V1543.46L1822.62 1713.87L1790.49 1658.21L1892.82 1480.95L1921 1529.76V1519.49L1895.06 1474.55V1474.54L1862.17 1417.58H1921V1412.44H1862.17L1894.3 1356.78H1921V1351.64H1897.27L1921 1310.54V1300.27L1857.72 1409.87L1825.59 1354.21L1921 1188.94V1178.67L1822.62 1349.08L1790.49 1293.42L1892.82 1116.16L1921 1164.97V1154.7L1895.06 1109.76V1109.75L1862.17 1052.79H1921V1047.65H1862.17L1894.3 991.993H1921V986.853H1897.27L1921 945.747V935.469L1857.72 1045.08L1825.59 989.423L1921 824.15V813.872L1822.62 984.285L1790.49 928.624L1892.82 751.368L1921 800.181V789.903L1895.06 744.969V744.957L1862.17 687.997H1921V682.859H1862.17L1894.3 627.199H1921V622.061H1897.27L1921 580.953V570.677L1857.72 680.289L1825.59 624.629L1921 459.357V449.08L1822.62 619.493L1790.49 563.831L1892.82 386.574L1921 435.387V425.109L1895.06 380.174V380.163L1862.17 323.205H1921V318.068H1862.17L1894.3 262.407H1921V257.266H1897.27L1921 216.161V205.883L1857.72 315.495L1825.59 259.837L1921 94.562V84.2865L1822.62 254.699L1790.49 199.038L1892.82 21.7817L1921 70.5957L1921 60.3175L1895.06 15.3828V15.3684L1886.18 0.00012207H1880.26L1889.85 16.6415L1787.52 193.901L1755.37 138.24L1835.19 0.00012207H1829.26L1821.14 14.0713H1616.46L1624.58 0.00012207H1618.65L1541.81 133.1L1509.66 77.4398L1554.37 0.00012207H1548.45L1506.71 72.3018L1474.55 16.6415L1484.17 0.00012207H1478.24L1471.6 11.5042L1464.96 0.00012207H1459.02L1537.36 135.671H1473.08L1394.74 0.00012207H1388.81L1467.15 135.671H1402.88L1324.53 0.00012207H1318.61L1396.95 135.671H1332.67L1298.31 76.1741L1263.21 15.3782V15.376L1254.33 0.00012207H1248.41L1258.02 16.6415L1155.67 193.898L1123.54 138.24L1203.36 0.00012207H1197.41L1194.5 5.05701L1189.29 14.0713H984.615L992.739 0.00012207H986.802L909.957 133.1L883.028 86.4569L877.823 77.4398L922.534 0.00012207H916.599L874.853 72.3018L842.721 16.6415L852.331 0.00012207H846.393L839.751 11.5042L833.112 0.00012207H827.177L905.507 135.671H841.236L762.906 0.00012207H756.971L835.301 135.671H771.031L692.701 0.00012207H686.768L765.098 135.671H700.827L666.478 76.1741L631.376 15.3782C631.376 15.3759 631.376 15.376 631.374 15.376L622.498 0.00012207H616.562L626.172 16.6415L523.832 193.898L491.698 138.24L571.511 0.00012207H565.576L562.658 5.05701L557.451 14.0713H352.772L360.896 0.00012207H354.964L278.118 133.1L251.187 86.4569L245.982 77.4398L290.693 0.00012207H284.758L243.015 72.3018L210.88 16.6415L220.488 0.00012207H214.555L207.913 11.5042L201.271 0.00012207H195.336L273.664 135.671H209.395L131.065 0.00012207H125.13L203.46 135.671H139.192L60.8618 0.00012207H54.9248L133.254 135.671H68.9864L34.6372 76.1741H34.6349L-0.464266 15.3782C-0.464266 15.3759 -0.467122 15.376 -0.467122 15.376L-1 14.4501L-1 24.7284L29.4352 77.4448L-1 130.152L-1 140.43L32.4023 82.5823L64.5366 138.24L-1 251.748L-1 262.407H203.46L171.326 318.068H-1L-1 323.205H30.9173L133.254 500.464H68.9864L34.6372 440.97C34.6372 440.968 34.6371 440.968 34.6349 440.966L-0.464266 380.17L-0.467122 380.167L-1 379.244L-1 389.522L29.4352 442.234L-1 494.943L-1 505.224L32.4023 447.372L64.5366 503.032L-1 616.542L-1 627.199H203.46L171.326 682.859H-1L-1 687.997H30.9173L133.254 865.256H68.9864L34.6372 805.762C34.6372 805.762 34.6371 805.76 34.6349 805.76L-0.464266 744.964C-0.464266 744.961 -0.467122 744.961 -0.467122 744.961L-1 744.036L-1 754.314L29.4352 807.026L-1 859.737L-1 870.015L32.4023 812.166L64.5366 867.826L-1 981.336L-1 991.993H203.46L171.326 1047.65H-1L-1 1052.79H30.9173L133.254 1230.05H68.9864L34.6372 1170.56C34.6372 1170.56 34.6371 1170.55 34.6349 1170.55L-0.464266 1109.76C-0.464266 1109.76 -0.467122 1109.76 -0.467122 1109.75L-1 1108.83L-1 1119.11L29.4352 1171.82L-1 1224.53L-1 1234.81L32.4023 1176.96L64.5366 1232.62L-1 1346.13L-1 1356.78H203.46L171.326 1412.44H-1L-1 1417.58H30.9173L133.254 1594.84H68.9864Z" fill="#4ADE80"/>
</svg>
