<svg id="svg" viewBox="0 0 1440 390" xmlns="http://www.w3.org/2000/svg" className="transition duration-300 ease-in-out delay-150 w-full h-full ">
<path d="M 0,400 C 0,400 0,100 0,100 C 51.44829955341808,86.6279628993473 102.89659910683616,73.2559257986946 180,66 C 257.10340089316384,58.744074201305395 359.86190312607346,57.604259704568875 438,63 C 516.1380968739265,68.39574029543112 569.65578838887,80.32703538302988 620,88 C 670.34421161113,95.67296461697012 717.5149433184472,99.08759876331158 787,89 C 856.4850566815528,78.91240123668842 948.284438337341,55.32256956372382 1022,66 C 1095.715561662659,76.67743043627618 1151.3473033321882,121.62212298179318 1218,133 C 1284.6526966678118,144.37787701820682 1362.326348333906,122.18893850910341 1440,100 C 1440,100 1440,400 1440,400 Z" stroke="none" stroke-width="0" fill="#4ade80" fill-opacity="0.4" className="transition-all duration-300 ease-in-out delay-150 path-0">
</path>
<path d="M 0,400 C 0,400 0,200 0,200 C 60.259704568876685,200.0996221229818 120.51940913775337,200.1992442459636 183,205 C 245.48059086224663,209.8007557540364 310.18206801786323,219.30264513912746 384,216 C 457.81793198213677,212.69735486087254 540.7523187907935,196.59017519752663 624,198 C 707.2476812092065,199.40982480247337 790.8086568189626,218.3366540707661 857,231 C 923.1913431810374,243.6633459292339 972.0130539333561,250.0632085194091 1041,234 C 1109.986946066644,217.9367914805909 1199.1391274476125,179.41051185159742 1269,170 C 1338.8608725523875,160.58948814840258 1389.4304362761936,180.29474407420128 1440,200 C 1440,200 1440,400 1440,400 Z" stroke="none" stroke-width="0" fill="#4ade80" fill-opacity="0.53" className="transition-all duration-300 ease-in-out delay-150 path-1">
</path>
<path d="M 0,400 C 0,400 0,300 0,300 C 61.5829611817245,286.5784953624184 123.165922363449,273.1569907248368 192,267 C 260.834077636551,260.8430092751632 336.9192717279285,261.9505324630711 400,273 C 463.0807282720715,284.0494675369289 513.1569907248369,305.0408794228788 582,313 C 650.8430092751631,320.9591205771212 738.452765372724,315.8859498454139 822,306 C 905.547234627276,296.1140501545861 985.0319477842668,281.4153211954655 1060,284 C 1134.9680522157332,286.5846788045345 1205.4194434902095,306.4527653727242 1268,312 C 1330.5805565097905,317.5472346272758 1385.2902782548954,308.77361731363794 1440,300 C 1440,300 1440,400 1440,400 Z" stroke="none" stroke-width="0" fill="#4ade80" fill-opacity="1" className="transition-all duration-300 ease-in-out delay-150 path-2"></path></svg>